# xmcd
#
# Track frame offsets:
#	150
#	23593
#	39190
#	53886
#	64244
#	83585
#	96283
#	115086
#	133771
#	147996
#	167065
#	179039
#	200177
#	217394
#	249791
#	267451
#
# Disc length: 3755 seconds
#
# Revision: 0
# Processed by: cddbd v1.4PL0 Copyright (c) Steve Scherf et al.
# Submitted via: EasyCDDAExtractor 4.6.0.1
#
DISCID=ef0ea910
DTITLE=Johnny Thompson Singers - La voix du Gospel
DYEAR=1900
DGENRE=Gospel
TTITLE0=Glory, Glory hallelujah
TTITLE1=Never Alone
TTITLE2=Kunbayah
TTITLE3=Go Tell It On The Mountain
TTITLE4=We Shall Overcome
TTITLE5=I'd Still Be Sleeping
TTITLE6=Day By Day
TTITLE7=The Storm Is Passing Over
TTITLE8=Ave Maria
TTITLE9=O Thou In Whose Presence
TTITLE10=Pass Me Not
TTITLE11=Just Over In The Gloryland
TTITLE12=How I Got Over
TTITLE13=At The Cross
TTITLE14=More About Jesus
TTITLE15=There Is A Fountain
EXTD=
EXTT0=
EXTT1=
EXTT2=
EXTT3=
EXTT4=
EXTT5=
EXTT6=
EXTT7=
EXTT8=
EXTT9=
EXTT10=
EXTT11=
EXTT12=
EXTT13=
EXTT14=
EXTT15=
PLAYORDER=
